<svg width="17" height="17" viewBox="0 0 17 17" fill="none" xmlns="http://www.w3.org/2000/svg">
<path d="M16.5136 2.32246C16.2635 2.07194 15.8577 2.07151 15.6077 2.3214L7.92137 9.9874L5.14818 6.97545C4.90855 6.71533 4.50341 6.69847 4.24286 6.93806C3.98252 7.17769 3.96585 7.58303 4.20548 7.84338L7.43036 11.3457C7.54847 11.474 7.71375 11.5486 7.88803 11.5522C7.89272 11.5524 7.89723 11.5524 7.90171 11.5524C8.07108 11.5524 8.23401 11.4851 8.35404 11.3655L16.5123 3.22861C16.7631 2.97875 16.7635 2.57298 16.5136 2.32246Z" fill="#3E4095"/>
<path d="M16.3593 7.85928C16.0054 7.85928 15.7186 8.14609 15.7186 8.5C15.7186 12.4805 12.4805 15.7186 8.5 15.7186C4.51974 15.7186 1.28141 12.4805 1.28141 8.5C1.28141 4.51974 4.51974 1.28141 8.5 1.28141C8.85388 1.28141 9.14072 0.9946 9.14072 0.640721C9.14072 0.286809 8.85388 0 8.5 0C3.81305 0 0 3.81305 0 8.5C0 13.1868 3.81305 17 8.5 17C13.1868 17 17 13.1868 17 8.5C17 8.14612 16.7132 7.85928 16.3593 7.85928Z" fill="#3E4095"/>
</svg>
