<svg width="140" height="59" viewBox="0 0 140 59" fill="none" xmlns="http://www.w3.org/2000/svg">
<path fill-rule="evenodd" clip-rule="evenodd" d="M130.812 12.0152C131.7 12.0152 132.608 12.0152 133.516 12.0152C129.965 17.1458 126.414 22.2556 122.862 27.3654C122.237 28.3209 122.156 29.0687 122.782 29.9619C128.391 37.8343 133.98 45.7068 139.59 53.5792C136.543 53.5792 133.476 53.5792 130.429 53.5792C126.03 47.2854 121.611 41.0124 117.213 34.7186C114.731 38.4159 112.249 42.1133 109.767 45.7899C106.74 45.7899 103.976 45.7899 100.969 45.7899C107.083 36.8788 113.702 27.677 121.813 18.0805C122.197 17.6443 122.56 17.3327 123.004 17.1042C123.589 16.8342 123.912 16.8757 124.396 16.4187C127.766 13.303 131.075 9.48102 134.364 5.5344C134.566 5.28514 134.848 5.2436 135.009 5.61749C135.171 6.01215 135.03 6.3445 134.808 6.67684C133.577 8.52552 132.023 9.81336 130.611 11.3712C130.268 11.7867 130.369 12.0152 130.812 12.0152ZM124.88 10.2703C125.062 9.81336 125.324 9.46024 125.687 9.21098C126.01 8.9825 126.716 8.73324 126.918 9.23176C126.999 9.4187 126.999 9.66796 126.959 9.95876C126.878 10.4781 126.535 10.6235 126.151 10.9558C125.586 11.4336 124.557 11.122 124.88 10.2703ZM114.67 18.7452C115.154 19.3268 115.921 19.5553 116.405 18.8906C116.991 18.0805 117.576 17.2704 118.161 16.4603C118.524 15.9618 118.686 15.5671 118.827 14.944C119.251 13.6977 120.582 13.573 119.977 14.944C118.161 17.7066 116.345 20.4692 114.509 23.2318C113.258 25.1636 110.715 26.036 109.202 23.8758C105.974 19.2852 102.745 14.6947 99.5166 10.0834C98.6489 8.89941 96.9943 9.37716 96.4697 7.71543C94.8353 5.47209 93.4632 3.35338 92.6359 1.52548C92.1315 0.424578 92.9184 0.154546 93.322 1.19313C93.8869 2.58483 94.8353 4.18425 95.9653 5.86675C96.2478 6.30295 96.6513 6.82225 97.2567 6.71839C97.5391 6.61453 97.6602 6.42758 97.5795 6.15755C97.4584 5.80443 97.3172 5.43054 97.1759 5.07743C97.0952 4.89048 96.9338 4.47505 97.1759 4.32965C97.297 4.24656 97.4988 4.41273 97.7611 4.66199C100.142 4.66199 102.503 4.66199 104.864 4.66199C108.133 9.35639 111.401 14.0508 114.67 18.7452Z" fill="#F58634"/>
<path fill-rule="evenodd" clip-rule="evenodd" d="M0.0793457 4.08032H16.3024V8.31774H4.27635V15.3801H15.1119V19.6798H4.27635V26.763H16.3024V31.0004H0.0793457V4.08032ZM86.8846 22.8787C91.2431 22.8787 95.6015 22.8787 99.9599 22.8787C100.242 20.573 99.9196 18.4128 99.0923 16.3356C96.2068 11.3919 90.0526 10.4157 85.7749 14.1546C83.9185 16.024 82.6069 18.6413 82.6271 21.3416C82.6473 23.8134 83.3737 26.5137 84.9072 28.3001C85.9363 29.4841 87.1671 30.3357 88.6401 30.8758C93.1801 32.5167 98.0632 30.5226 99.8187 25.7244C98.6685 25.309 97.4982 24.8935 96.3279 24.4781C95.319 27.033 93.2003 27.9885 90.6781 27.5938C88.398 27.2199 87.2478 25.5374 86.8846 22.8787ZM86.9855 19.6383C89.9517 19.6383 92.9178 19.6383 95.9042 19.6383C95.3594 14.1753 87.6716 14.0507 86.9855 19.6383ZM74.6568 16.3771C73.5067 16.3771 72.3767 16.3771 71.2266 16.3771C71.2266 15.0893 71.2266 13.8015 71.2266 12.5136C71.7714 12.5136 72.296 12.5136 72.8408 12.5136C74.1927 12.5136 75.1008 11.1842 75.1008 9.85484C75.1008 8.81626 75.1008 7.77768 75.1008 6.73909C76.3518 6.73909 77.6028 6.73909 78.8538 6.73909C78.8538 8.67086 78.8538 10.5819 78.8538 12.5136C80.0847 12.5136 81.3357 12.5136 82.5666 12.5136C82.5666 13.8015 82.5666 15.0893 82.5666 16.3771C81.2954 16.3771 80.0242 16.3771 78.753 16.3771C78.753 19.2229 78.753 22.0686 78.753 24.9143C78.753 26.1398 79.2776 27.1576 80.6093 27.1576C81.2954 27.1576 81.9814 27.1576 82.6473 27.1576C82.6473 28.3624 82.6473 29.5671 82.6473 30.7719C80.4681 31.3327 78.531 31.2081 76.8562 30.3772C75.1815 29.2763 74.6367 27.3446 74.6367 25.4128C74.6367 22.4009 74.6568 19.389 74.6568 16.3771ZM70.9845 30.8965C70.9845 26.9291 70.9845 22.9618 70.9845 18.9944C70.9845 15.8163 69.3097 13.1368 66.2225 12.2228C64.0634 11.5997 61.3798 11.7451 59.4024 12.8252C57.4855 13.8845 56.1941 15.6709 55.9116 17.9142C57.1626 18.1635 58.4136 18.4128 59.6647 18.6828C60.1489 16.1694 62.2071 14.9231 64.5679 15.6294C65.0522 15.7332 65.4961 15.9202 65.8795 16.2317C66.6462 16.8964 67.191 18.1012 66.4444 18.9944C65.5768 20.033 63.2967 19.9914 62.0053 20.2199C59.5234 20.6353 57.2433 21.1131 55.8309 23.7303C55.0641 25.9529 55.3668 27.7808 56.5774 29.2763C58.2522 31.2912 61.2587 31.9351 63.6397 31.1042C64.9311 30.6473 66.0409 29.8372 66.9892 28.7155C66.9892 29.4425 66.9892 30.1695 66.9892 30.8965C68.321 30.8965 69.6527 30.8965 70.9845 30.8965ZM66.7471 22.4632C66.7471 23.4395 66.848 24.4158 66.5453 25.3505C66.2023 26.4099 65.6171 27.2199 64.6688 27.6769C62.7317 28.3624 61.2789 28.217 60.2902 27.2407C58.8374 25.6828 59.927 23.8342 61.5614 23.1695C63.1554 22.5463 65.1531 22.6086 66.7471 22.4632ZM36.2583 12.389H40.3544V14.57C41.8476 12.9914 42.6143 12.0359 46.0244 12.0359C49.4345 12.0359 54.4184 16.3771 54.4184 21.7362C54.4184 27.0953 49.4345 31.4366 46.0244 31.4366C42.6143 31.4366 41.8476 30.4603 40.3544 28.8817V38.042H36.2583V12.389ZM45.2778 15.7748C47.9817 15.7748 50.1811 18.4335 50.1811 21.7362C50.1811 25.0182 47.9817 27.6977 45.2778 27.6977C42.5538 27.6977 40.3544 25.0182 40.3544 21.7362C40.3544 18.4335 42.5538 15.7748 45.2778 15.7748ZM17.3516 12.5552H22.2347L26.2097 18.122L30.1646 12.5552H35.0476L28.6512 21.5701L35.3503 31.0004H30.4673L26.2097 24.9974L21.9522 31.0004H17.049L23.7682 21.5701L17.3516 12.5552Z" fill="#3E4095"/>
<path d="M59.8469 34.8015H62.0261C63.1965 34.8015 64.0439 34.9054 64.5686 35.1338C65.0932 35.3623 65.4967 35.7155 65.7994 36.214C66.1021 36.7125 66.2433 37.3149 66.2433 38.0211C66.2433 38.7897 66.0617 39.4336 65.6582 39.9529C65.2748 40.4722 64.73 40.8253 64.0641 41.0122C63.6605 41.1369 62.9543 41.1992 61.9051 41.1992V45.8936H59.8469V34.8015ZM61.9051 39.1428H62.5508C63.0552 39.1428 63.4184 39.1012 63.6202 39.0181C63.822 38.9558 63.9834 38.8104 64.0843 38.6443C64.2053 38.4781 64.2659 38.2704 64.2659 38.0211C64.2659 37.5849 64.1045 37.2733 63.7816 37.0864C63.5395 36.941 63.1157 36.8579 62.4701 36.8579H61.9051V39.1428ZM73.9311 37.6888H75.9287V45.8936H73.9311V45.0212C73.5275 45.4158 73.1442 45.6858 72.7608 45.852C72.3572 46.0182 71.9335 46.1013 71.4694 46.1013C70.4403 46.1013 69.5525 45.6858 68.8059 44.8758C68.0392 44.0449 67.6759 43.0271 67.6759 41.8015C67.6759 40.5345 68.0392 39.4959 68.7656 38.6858C69.492 37.8757 70.3798 37.481 71.4089 37.481C71.8931 37.481 72.337 37.5641 72.7608 37.7511C73.1845 37.938 73.5679 38.2288 73.9311 38.5819V37.6888ZM71.8326 39.3713C71.2071 39.3713 70.6825 39.5998 70.2789 40.0567C69.8753 40.4929 69.6736 41.0745 69.6736 41.7808C69.6736 42.487 69.8753 43.0686 70.2789 43.5256C70.7026 43.9826 71.2273 44.2111 71.8326 44.2111C72.4581 44.2111 72.9827 43.9826 73.4065 43.5464C73.81 43.0894 74.032 42.5078 74.032 41.7808C74.032 41.0538 73.81 40.4722 73.4065 40.036C72.9827 39.5998 72.4581 39.3713 71.8326 39.3713ZM78.7334 34.303C79.0765 34.303 79.3791 34.4484 79.6414 34.6976C79.8836 34.9677 80.0046 35.2792 80.0046 35.6531C80.0046 36.027 79.8836 36.3386 79.6414 36.5879C79.3791 36.8579 79.0966 36.9825 78.7334 36.9825C78.3904 36.9825 78.0877 36.8371 77.8254 36.5879C77.5833 36.3178 77.4421 36.0063 77.4421 35.6116C77.4421 35.2585 77.5833 34.9469 77.8254 34.6976C78.0676 34.4276 78.3702 34.303 78.7334 34.303ZM77.7245 37.6888H79.7222V45.8936H77.7245V37.6888ZM81.5382 37.6888H83.5358V38.5196C83.9797 38.125 84.4034 37.8549 84.7666 37.7095C85.1298 37.5434 85.5132 37.481 85.8966 37.481C86.6835 37.481 87.3494 37.7511 87.9144 38.3327C88.3785 38.8104 88.6004 39.5167 88.6004 40.4722V45.8936H86.623V42.3001C86.623 41.3238 86.5826 40.6591 86.5019 40.3475C86.4212 40.0152 86.2598 39.7659 86.058 39.5998C85.8361 39.4336 85.5737 39.3505 85.2711 39.3505C84.8675 39.3505 84.5043 39.4959 84.2218 39.7659C83.9393 40.0567 83.7376 40.4306 83.6165 40.9291C83.556 41.1784 83.5358 41.7392 83.5358 42.5909V45.8936H81.5382V37.6888ZM90.7796 34.6561H92.7773V37.6888H93.9677V39.4543H92.7773V45.8936H90.7796V39.4543H89.7506V37.6888H90.7796V34.6561ZM99.9202 38.8312L98.6894 40.0983C98.1849 39.5998 97.7208 39.3297 97.3173 39.3297C97.0953 39.3297 96.9137 39.392 96.7927 39.4751C96.6514 39.579 96.5909 39.7036 96.5909 39.849C96.5909 39.9529 96.6312 40.0567 96.7119 40.1606C96.7927 40.2437 96.9944 40.3683 97.3173 40.5345L98.0437 40.9084C98.8104 41.303 99.3552 41.6977 99.6377 42.1131C99.9202 42.5286 100.061 43.0063 100.061 43.5464C100.061 44.2734 99.7992 44.8758 99.2947 45.3743C98.7701 45.852 98.0639 46.1013 97.1962 46.1013C96.0259 46.1013 95.0977 45.6443 94.4117 44.7096L95.6425 43.3179C95.8846 43.6087 96.147 43.8372 96.4698 44.0033C96.7725 44.1695 97.055 44.2526 97.2971 44.2526C97.5796 44.2526 97.7814 44.1903 97.9428 44.0657C98.1042 43.941 98.1849 43.7956 98.1849 43.6087C98.1849 43.2971 97.9024 42.9855 97.3173 42.6947L96.6312 42.3416C95.3398 41.6769 94.7143 40.8253 94.7143 39.8282C94.7143 39.1843 94.9565 38.6235 95.4407 38.1665C95.925 37.7095 96.5505 37.481 97.2971 37.481C97.8217 37.481 98.306 37.5849 98.7499 37.8342C99.214 38.0626 99.5974 38.395 99.9202 38.8312Z" fill="#F58634"/>
<path d="M32.4234 54.3893V53.8492H29.9617V57.3181H30.5872V55.9887H32.2014V55.4486H30.5872V54.3893H32.4234ZM33.2103 54.2439C33.4524 54.2439 33.5937 54.0777 33.5937 53.8492C33.5937 53.6623 33.4323 53.4961 33.2103 53.4961C32.9884 53.4961 32.8269 53.6623 32.8269 53.87C32.8269 54.0777 32.9884 54.2439 33.2103 54.2439ZM32.9076 57.3181H33.513V54.6801H32.9076V57.3181ZM35.7527 54.6385C35.3895 54.6385 35.0667 54.7839 34.8851 55.0124V54.6801H34.2999V57.3181H34.9053V55.9887C34.9053 55.4486 35.1877 55.1786 35.6115 55.1786C35.9949 55.1786 36.237 55.4071 36.237 55.8848V57.3181H36.8222V55.8017C36.8222 55.0124 36.3782 54.6385 35.7527 54.6385ZM40.0304 56.0095C40.0304 55.1786 39.4856 54.6385 38.7391 54.6385C37.9723 54.6385 37.4073 55.2201 37.4073 55.9887C37.4073 56.778 37.9521 57.3596 38.8198 57.3596C39.2637 57.3596 39.6269 57.1934 39.8488 56.9234L39.526 56.5495C39.3444 56.7365 39.1224 56.8196 38.8399 56.8196C38.396 56.8196 38.0732 56.5703 38.0127 56.1964H40.0103C40.0304 56.1341 40.0304 56.051 40.0304 56.0095ZM38.7391 55.1371C39.1224 55.1371 39.4049 55.4071 39.4453 55.781H37.9925C38.053 55.4071 38.3355 55.1371 38.7391 55.1371ZM41.4025 57.3596C42.1088 57.3596 42.5527 57.0273 42.5527 56.5288C42.5527 55.5109 40.9788 55.9679 40.9788 55.4486C40.9788 55.2617 41.1402 55.1371 41.5034 55.1371C41.7456 55.1371 42.0079 55.1994 42.25 55.3448L42.472 54.867C42.25 54.7216 41.8465 54.6385 41.5236 54.6385C40.8174 54.6385 40.3936 54.9709 40.3936 55.4694C40.3936 56.5288 41.9675 56.051 41.9675 56.5495C41.9675 56.7365 41.8061 56.8403 41.4227 56.8403C41.12 56.8403 40.7568 56.7365 40.5349 56.5911L40.3129 57.048C40.5349 57.2142 40.9586 57.3596 41.4025 57.3596ZM44.4494 56.7365C44.3485 56.7988 44.2274 56.8403 44.1064 56.8403C43.8844 56.8403 43.7634 56.6949 43.7634 56.4457V55.1994H44.4494V54.7008H43.7634V54.0985H43.158V54.7008H42.7343V55.1994H43.158V56.4664C43.158 57.048 43.4809 57.3596 44.0458 57.3596C44.2476 57.3596 44.4696 57.2973 44.6108 57.1727L44.4494 56.7365ZM49.7562 57.2973C49.5948 57.4843 49.393 57.5881 49.171 57.5881C48.9692 57.5881 48.8078 57.505 48.606 57.2973C49.3526 57.0688 49.8773 56.4249 49.8773 55.594C49.8773 54.5554 49.1105 53.8077 48.0612 53.8077C47.012 53.8077 46.2452 54.5554 46.2452 55.594C46.2452 56.5495 46.9313 57.2765 47.8796 57.3596C48.3639 57.8997 48.7069 58.0659 49.171 58.0659C49.5141 58.0659 49.8167 57.9205 50.0387 57.6712L49.7562 57.2973ZM46.8909 55.594C46.8909 54.8878 47.3752 54.3685 48.0612 54.3685C48.7473 54.3685 49.2517 54.8878 49.2517 55.594C49.2517 56.3003 48.7473 56.7988 48.0612 56.7988C47.3752 56.7988 46.8909 56.3003 46.8909 55.594ZM52.3591 54.6801V56.0095C52.3591 56.5495 52.0766 56.7988 51.6529 56.7988C51.2695 56.7988 51.0476 56.5703 51.0476 56.0926V54.6801H50.4624V56.1756C50.4624 56.9857 50.9063 57.3596 51.552 57.3596C51.895 57.3596 52.1977 57.2142 52.3793 56.9857V57.3181H52.9645V54.6801H52.3591ZM54.7199 54.6385C54.3164 54.6385 53.9128 54.7632 53.6303 54.9709L53.8725 55.4279C54.0743 55.2617 54.3567 55.1578 54.6594 55.1578C55.0832 55.1578 55.2849 55.3655 55.2849 55.7394V55.781H54.6191C53.8523 55.781 53.5698 56.1133 53.5698 56.5703C53.5698 57.0273 53.933 57.3596 54.5182 57.3596C54.9016 57.3596 55.184 57.2142 55.3253 56.9857V57.3181H55.8903V55.7602C55.8903 55.0124 55.4665 54.6385 54.7199 54.6385ZM54.6392 56.9026C54.3366 56.9026 54.155 56.7572 54.155 56.5288C54.155 56.3418 54.2559 56.1756 54.6796 56.1756H55.2849V56.4872C55.184 56.7572 54.9419 56.9026 54.6392 56.9026ZM56.657 57.3181H57.2624V53.6415H56.657V57.3181ZM58.352 54.2439C58.5739 54.2439 58.7354 54.0777 58.7354 53.8492C58.7354 53.6623 58.5739 53.4961 58.352 53.4961C58.13 53.4961 57.9686 53.6623 57.9686 53.87C57.9686 54.0777 58.13 54.2439 58.352 54.2439ZM58.0493 57.3181H58.6546V54.6801H58.0493V57.3181ZM60.8137 56.7365C60.7128 56.7988 60.5917 56.8403 60.4706 56.8403C60.2487 56.8403 60.1074 56.6949 60.1074 56.4457V55.1994H60.7935V54.7008H60.1074V54.0985H59.5223V54.7008H59.0986V55.1994H59.5223V56.4664C59.5223 57.048 59.8451 57.3596 60.3899 57.3596C60.6119 57.3596 60.8339 57.2973 60.9751 57.1727L60.8137 56.7365ZM63.235 54.6801L62.4279 56.6326L61.6208 54.6801H60.9953L62.1252 57.3181L62.0849 57.4219C61.9638 57.692 61.8427 57.7958 61.6208 57.7958C61.4594 57.7958 61.2979 57.7335 61.1769 57.6089L60.9549 58.0659C61.1163 58.2113 61.3787 58.3151 61.641 58.3151C62.0647 58.3151 62.3876 58.1282 62.6297 57.5258L63.8202 54.6801H63.235ZM64.2237 57.3596C64.4457 57.3596 64.6273 57.1727 64.6273 56.9442C64.6273 56.6949 64.4457 56.5288 64.2237 56.5288C64.022 56.5288 63.8404 56.6949 63.8404 56.9442C63.8404 57.1727 64.022 57.3596 64.2237 57.3596ZM65.3941 57.3596C65.616 57.3596 65.7976 57.1727 65.7976 56.9442C65.7976 56.6949 65.616 56.5288 65.3941 56.5288C65.1923 56.5288 65.0107 56.6949 65.0107 56.9442C65.0107 57.1727 65.1923 57.3596 65.3941 57.3596ZM66.5644 57.3596C66.7863 57.3596 66.9679 57.1727 66.9679 56.9442C66.9679 56.6949 66.7863 56.5288 66.5644 56.5288C66.3626 56.5288 66.181 56.6949 66.181 56.9442C66.181 57.1727 66.3626 57.3596 66.5644 57.3596ZM67.6136 57.3181H69.9946V56.778H68.2391V53.8492H67.6136V57.3181ZM71.5483 57.3596C72.3554 57.3596 72.9204 56.778 72.9204 55.9887C72.9204 55.1994 72.3554 54.6385 71.5483 54.6385C70.7614 54.6385 70.1964 55.1994 70.1964 55.9887C70.1964 56.778 70.7614 57.3596 71.5483 57.3596ZM71.5483 56.8196C71.1246 56.8196 70.8017 56.508 70.8017 55.9887C70.8017 55.4902 71.1246 55.1786 71.5483 55.1786C71.9922 55.1786 72.3151 55.4902 72.3151 55.9887C72.3151 56.508 71.9922 56.8196 71.5483 56.8196ZM74.9584 54.6385C74.575 54.6385 74.2723 54.7839 74.0706 55.0124V54.6801H73.5056V57.3181H74.0907V55.9887C74.0907 55.4486 74.3934 55.1786 74.8171 55.1786C75.2005 55.1786 75.4225 55.4071 75.4225 55.8848V57.3181H76.0278V55.8017C76.0278 55.0124 75.5637 54.6385 74.9584 54.6385ZM78.7922 54.6801V55.0332C78.5702 54.7632 78.2474 54.6385 77.9044 54.6385C77.1578 54.6385 76.5928 55.1578 76.5928 55.9264C76.5928 56.6742 77.1578 57.1934 77.9044 57.1934C78.2474 57.1934 78.55 57.0896 78.7518 56.8403V56.9857C78.7518 57.5258 78.5097 57.7958 77.9447 57.7958C77.5815 57.7958 77.2183 57.6712 76.9963 57.4635L76.734 57.9412C77.0165 58.1905 77.5008 58.3151 77.9649 58.3151C78.8729 58.3151 79.3572 57.8789 79.3572 56.9234V54.6801H78.7922ZM77.9851 56.6742C77.521 56.6742 77.1981 56.3626 77.1981 55.9264C77.1981 55.4694 77.521 55.1786 77.9851 55.1786C78.429 55.1786 78.772 55.4694 78.772 55.9264C78.772 56.3626 78.429 56.6742 77.9851 56.6742ZM82.5453 56.0095C82.5453 55.1786 82.0005 54.6385 81.2539 54.6385C80.4871 54.6385 79.9221 55.2201 79.9221 55.9887C79.9221 56.778 80.4871 57.3596 81.3548 57.3596C81.7785 57.3596 82.1417 57.1934 82.3838 56.9234L82.061 56.5495C81.8794 56.7365 81.6574 56.8196 81.3548 56.8196C80.9109 56.8196 80.6082 56.5703 80.5275 56.1964H82.5453C82.5453 56.1341 82.5453 56.051 82.5453 56.0095ZM81.2539 55.1371C81.6574 55.1371 81.9399 55.4071 81.9803 55.781H80.5275C80.588 55.4071 80.8705 55.1371 81.2539 55.1371ZM83.6954 55.054V54.6801H83.1304V57.3181H83.7358V56.0302C83.7358 55.4902 84.0183 55.2201 84.4622 55.2201C84.5227 55.2201 84.5631 55.2201 84.6034 55.2409V54.6385C84.1797 54.6385 83.877 54.7839 83.6954 55.054ZM86.5203 57.3181H88.9013V56.778H87.1458V53.8492H86.5203V57.3181ZM90.3541 54.6385C89.9304 54.6385 89.5268 54.7632 89.2645 54.9709L89.5066 55.4279C89.6882 55.2617 89.9909 55.1578 90.2734 55.1578C90.6971 55.1578 90.9191 55.3655 90.9191 55.7394V55.781H90.2532C89.4663 55.781 89.1838 56.1133 89.1838 56.5703C89.1838 57.0273 89.547 57.3596 90.1322 57.3596C90.5155 57.3596 90.798 57.2142 90.9393 56.9857V57.3181H91.5043V55.7602C91.5043 55.0124 91.0805 54.6385 90.3541 54.6385ZM90.2734 56.9026C89.9506 56.9026 89.769 56.7572 89.769 56.5288C89.769 56.3418 89.89 56.1756 90.2936 56.1756H90.9191V56.4872C90.8182 56.7572 90.5559 56.9026 90.2734 56.9026ZM93.0781 57.3596C93.7844 57.3596 94.2283 57.0273 94.2283 56.5288C94.2283 55.5109 92.6544 55.9679 92.6544 55.4486C92.6544 55.2617 92.8158 55.1371 93.1992 55.1371C93.4413 55.1371 93.6835 55.1994 93.9256 55.3448L94.1476 54.867C93.9256 54.7216 93.5422 54.6385 93.1992 54.6385C92.493 54.6385 92.0692 54.9709 92.0692 55.4694C92.0692 56.5288 93.6431 56.051 93.6431 56.5495C93.6431 56.7365 93.4817 56.8403 93.1185 56.8403C92.7956 56.8403 92.4526 56.7365 92.2105 56.5911L91.9885 57.048C92.2105 57.2142 92.6544 57.3596 93.0781 57.3596ZM96.125 56.7365C96.0443 56.7988 95.9232 56.8403 95.782 56.8403C95.56 56.8403 95.4389 56.6949 95.4389 56.4457V55.1994H96.125V54.7008H95.4389V54.0985H94.8336V54.7008H94.4099V55.1994H94.8336V56.4664C94.8336 57.048 95.1565 57.3596 95.7214 57.3596C95.9434 57.3596 96.1452 57.2973 96.2864 57.1727L96.125 56.7365ZM97.0935 54.2439C97.3155 54.2439 97.4769 54.0777 97.4769 53.8492C97.4769 53.6623 97.3155 53.4961 97.0935 53.4961C96.8716 53.4961 96.7102 53.6623 96.7102 53.87C96.7102 54.0777 96.8716 54.2439 97.0935 54.2439ZM96.7909 57.3181H97.3962V54.6801H96.7909V57.3181ZM99.6359 54.6385C99.2526 54.6385 98.9499 54.7839 98.7481 55.0124V54.6801H98.1831V57.3181H98.7683V55.9887C98.7683 55.4486 99.071 55.1786 99.4947 55.1786C99.8781 55.1786 100.1 55.4071 100.1 55.8848V57.3181H100.705V55.8017C100.705 55.0124 100.241 54.6385 99.6359 54.6385ZM103.47 54.6801V55.0332C103.248 54.7632 102.925 54.6385 102.582 54.6385C101.835 54.6385 101.27 55.1578 101.27 55.9264C101.27 56.6742 101.835 57.1934 102.582 57.1934C102.925 57.1934 103.228 57.0896 103.429 56.8403V56.9857C103.429 57.5258 103.187 57.7958 102.622 57.7958C102.259 57.7958 101.896 57.6712 101.674 57.4635L101.412 57.9412C101.694 58.1905 102.178 58.3151 102.642 58.3151C103.55 58.3151 104.035 57.8789 104.035 56.9234V54.6801H103.47ZM102.663 56.6742C102.219 56.6742 101.876 56.3626 101.876 55.9264C101.876 55.4694 102.219 55.1786 102.663 55.1786C103.107 55.1786 103.45 55.4694 103.45 55.9264C103.45 56.3626 103.107 56.6742 102.663 56.6742ZM108.655 54.3893V53.8492H106.194V57.3181H106.819V55.9887H108.454V55.4486H106.819V54.3893H108.655ZM109.463 54.2439C109.685 54.2439 109.846 54.0777 109.846 53.8492C109.846 53.6623 109.685 53.4961 109.463 53.4961C109.241 53.4961 109.079 53.6623 109.079 53.87C109.079 54.0777 109.241 54.2439 109.463 54.2439ZM109.16 57.3181H109.745V54.6801H109.16V57.3181ZM112.005 54.6385C111.622 54.6385 111.319 54.7839 111.117 55.0124V54.6801H110.552V57.3181H111.137V55.9887C111.137 55.4486 111.44 55.1786 111.864 55.1786C112.247 55.1786 112.469 55.4071 112.469 55.8848V57.3181H113.074V55.8017C113.074 55.0124 112.61 54.6385 112.005 54.6385ZM114.124 54.2439C114.366 54.2439 114.507 54.0777 114.507 53.8492C114.507 53.6623 114.346 53.4961 114.124 53.4961C113.922 53.4961 113.74 53.6623 113.74 53.87C113.74 54.0777 113.922 54.2439 114.124 54.2439ZM113.821 57.3181H114.426V54.6801H113.821V57.3181ZM116 57.3596C116.727 57.3596 117.171 57.0273 117.171 56.5288C117.171 55.5109 115.597 55.9679 115.597 55.4486C115.597 55.2617 115.758 55.1371 116.121 55.1371C116.363 55.1371 116.606 55.1994 116.868 55.3448L117.09 54.867C116.868 54.7216 116.464 54.6385 116.121 54.6385C115.435 54.6385 115.012 54.9709 115.012 55.4694C115.012 56.5288 116.585 56.051 116.585 56.5495C116.585 56.7365 116.424 56.8403 116.041 56.8403C115.718 56.8403 115.375 56.7365 115.153 56.5911L114.931 57.048C115.153 57.2142 115.576 57.3596 116 57.3596ZM119.148 54.6385C118.785 54.6385 118.482 54.7632 118.28 54.9917V53.6415H117.695V57.3181H118.28V55.9887C118.28 55.4486 118.583 55.1786 119.007 55.1786C119.39 55.1786 119.612 55.4071 119.612 55.8848V57.3181H120.217V55.8017C120.217 55.0124 119.753 54.6385 119.148 54.6385ZM121.166 57.3596C121.388 57.3596 121.569 57.1727 121.569 56.9442C121.569 56.6949 121.388 56.5288 121.166 56.5288C120.964 56.5288 120.782 56.6949 120.782 56.9442C120.782 57.1727 120.964 57.3596 121.166 57.3596Z" fill="#373435"/>
<path d="M46.1241 40.2022C46.1241 40.95 45.539 41.5524 44.8125 41.5524C44.0861 41.5524 43.501 40.95 43.501 40.2022C43.501 39.4544 44.0861 38.8521 44.8125 38.8521C45.539 38.8521 46.1241 39.4544 46.1241 40.2022Z" fill="#F58634"/>
<path d="M56.6356 40.2022C56.6356 40.95 56.0504 41.5524 55.324 41.5524C54.5976 41.5524 54.0125 40.95 54.0125 40.2022C54.0125 39.4544 54.5976 38.8521 55.324 38.8521C56.0504 38.8521 56.6356 39.4544 56.6356 40.2022Z" fill="#F58634"/>
<path d="M51.3911 40.2022C51.3911 40.95 50.7858 41.5524 50.0594 41.5524C49.333 41.5524 48.7478 40.95 48.7478 40.2022C48.7478 39.4544 49.333 38.8521 50.0594 38.8521C50.7858 38.8521 51.3911 39.4544 51.3911 40.2022Z" fill="#F58634"/>
</svg>
